<?xml version="1.0" standalone="no"?>
<!DOCTYPE svg PUBLIC "-//W3C//DTD SVG 20010904//EN"
 "http://www.w3.org/TR/2001/REC-SVG-20010904/DTD/svg10.dtd">
<svg version="1.0" xmlns="http://www.w3.org/2000/svg"
 width="512.000000pt" height="512.000000pt" viewBox="0 0 512.000000 512.000000"
 preserveAspectRatio="xMidYMid meet">
<metadata>
Created by potrace 1.11, written by Peter Selinger 2001-2013
</metadata>
<g transform="translate(0.000000,512.000000) scale(0.100000,-0.100000)"
fill="#000000" stroke="none">
<path d="M1077 4004 c-1 -1 -54 -5 -117 -8 -106 -7 -327 -33 -340 -41 -3 -2
-5 -556 -5 -1232 l0 -1228 65 -1 c36 -1 72 -2 80 -3 13 -1 16 -22 15 -138 l0
-138 158 0 c98 0 161 3 165 10 4 5 7 228 8 495 1 267 2 486 3 486 0 1 20 -2
44 -7 73 -14 337 -11 432 5 17 3 46 8 65 11 19 3 78 21 132 39 285 97 457 281
515 551 14 67 21 263 10 315 -27 134 -83 262 -144 330 -15 17 -44 69 -64 115
-20 46 -53 106 -73 134 -115 157 -312 258 -571 293 -66 8 -370 18 -378 12z
m233 -272 c0 -6 -21 -10 -47 -10 -68 0 -253 -12 -285 -18 -16 -3 -28 -1 -28 4
0 6 26 13 58 17 31 4 62 8 67 9 28 8 235 6 235 -2z m40 -4 c0 -4 -7 -8 -15 -8
-8 0 -15 4 -15 8 0 5 7 9 15 9 8 0 15 -4 15 -9z m289 -297 c65 -19 152 -59
174 -80 13 -13 14 -122 1 -197 -30 -178 -139 -308 -311 -371 -64 -23 -87 -29
-158 -38 -63 -9 -209 -13 -225 -6 -13 5 -15 52 -15 353 l0 347 55 6 c30 4 60
8 65 10 6 1 84 2 175 0 135 -2 178 -6 239 -24z m240 -778 c-121 -138 -280
-196 -532 -195 -71 0 -131 3 -134 6 -4 3 18 6 48 6 51 1 152 11 226 25 112 19
288 93 370 156 48 36 53 36 22 2z"/>
<path d="M2486 3980 c-2 -5 0 -2456 3 -2475 1 -7 32 -11 79 -10 l77 0 1 -130
c1 -71 2 -135 3 -140 1 -7 261 -10 772 -10 510 0 773 -3 775 -10 2 -5 5 -75 8
-153 2 -79 7 -146 10 -150 3 -3 37 -5 76 -5 l70 1 1 -62 c3 -138 7 -207 13
-213 5 -5 147 -7 241 -4 18 1 20 8 21 79 2 118 16 639 19 710 1 34 -1 64 -5
67 -3 2 -41 5 -84 7 l-77 2 3 136 3 135 -27 3 -28 3 -2 972 -3 972 -75 0 -75
0 -5 140 -5 140 -162 0 c-102 0 -164 -3 -166 -10 -2 -5 -3 -500 -3 -1098 1
-720 -2 -1091 -9 -1095 -17 -12 -955 -9 -956 3 -1 5 -3 435 -4 955 -1 520 -3
950 -4 956 -1 7 -25 10 -68 9 -38 -1 -73 0 -78 2 -7 2 -10 53 -10 134 0 71 -2
133 -5 137 -6 9 -320 10 -324 2z"/>
</g>
</svg>
